<svg height="73" width="389.97" viewBox="0 0 389.97 73">
  <g id="SvgjsG1007" featurekey="2ou6gm-0" transform="matrix(0.884223304401461,0,0,0.884223304401461,18.198864376385444,18.203707646256994)" fill="#fcd34d">
    <g xmlns="http://www.w3.org/2000/svg">
      <path d="M61.4650879,36.3986206c0.0081177-0.0186157,0.0092163-0.0396729,0.0162354-0.0588379   c1.6546097-5.0741806-0.7095642-12.0856972-5.1258545-13.9223022c2.12397-4.9591217-1.5689545-10.3233995-7.046875-11.0678711   c1.1270409-9.2178583-12.099823-12.7105484-16.9921265-5.3311157c-0.1985931-0.0813394-0.4343472-0.0813341-0.6329346,0   c-4.8967762-7.3831177-18.1223412-3.8813059-16.9911499,5.331604c-5.477437,0.7361126-9.1726112,6.1056633-7.046875,11.0683594   c-6.9534302,3.1573696-7.5484252,15.5341873-1.1845703,19.8032227c-2.3679242,5.6430893,1.5883837,12.6201744,7.5377197,13.1276855   c0.0005398-0.0000229,0.0009851,0.0003738,0.0015259,0.0001831c0.358325,0.0394669,0.7257681,0.0605659,1.0925903,0.0547485   c2.2650795,7.1246376,12.1355762,8.8797607,16.9046021,3.1243286c4.7169228,5.7766495,14.6640625,3.9869537,16.9088745-3.1204224   c6.4958534,0.2328453,11.1631813-7.1431923,8.6328125-13.1884766   C59.3896484,40.9456787,60.760498,38.8586426,61.4650879,36.3986206z M24.4345703,60   c-3.2928467,0-6.1428223-1.9544067-7.2893677-4.8540039c2.8275757-0.7105103,5.1922607-2.7858276,6.3294067-5.6381836   c0.2050781-0.5126953-0.0449219-1.0947266-0.5585938-1.2988281c-0.5087891-0.2050781-1.09375,0.0439453-1.2988281,0.5585938   c-1.0187378,2.5531006-3.2695923,4.31604-5.8760986,4.6049805C15.4906006,53.3928833,15.2501831,53.4037476,15,53.4043579   c-0.0888662-1.6423149,0.292387-4.807415-0.4237776-5.9189987c-0.2285109-0.559761-1.6546946-2.8004379-1.5762711-3.4052505   C13,44.0800781,13,40,13,40c0-0.5527344-0.4472656-1-1-1s-1,0.4472656-1,1v4.0800781   c-0.1211948,1.6167793,1.8132086,3.5760765,2.0000982,5.0995865C13,49.1796875,13,53.1078491,13,53.1078491   c-4.2865973-1.1498108-6.5635619-6.7850914-4.3748417-10.8422966c0.2400761-0.4852791,0.0496464-1.0751228-0.4298458-1.3280525   C5.6464844,39.59375,4,36.3427734,4,32.6557617c0-4.2426758,2.2314453-7.9086914,5.3056641-8.7163086   c0.3066406-0.0805664,0.5566406-0.3012695,0.6738281-0.5947266c0.1181641-0.2939453,0.0898438-0.6259766-0.0751953-0.8959961   c-0.5712891-0.9291992-0.8603516-1.9282227-0.8603516-2.9692383c0.178112-7.3625889,11.8372498-8.5034704,14.1230392-1.6878796   c0.1357498,0.424696,0.5283279,0.6956921,0.9521561,0.6956921c0.6607285,0.0100212,1.1688766-0.6749229,0.9521294-1.3056679   c-1.0783501-3.3693199-4.4762993-5.7556114-8.3591728-5.9368858c-0.7342615-3.8819394,2.7629681-7.2457857,7.0925789-7.2447534   C27.7724609,4,31,6.8037109,31,10.25V20h-5c-0.5527344,0-1,0.4477539-1,1s0.4472656,1,1,1h5v3.956543H20.6523438   c-0.5527344,0-1,0.4477539-1,1v6.6738281c-5.5298262,1.2824249-4.7302732,9.3362312,1.0000992,9.4565392   c5.7297516-0.1212082,6.5275421-8.1744385,0.9999008-9.4564171V27.956543H31v28.6010742   C29.5683594,58.6875,27.078125,60,24.4345703,60z M20.6523438,35.5214844   c3.6682224,0.0965919,3.6683636,5.4697838-0.0000839,5.5654297C16.982048,40.9903831,16.983654,35.6178856,20.6523438,35.5214844z    M55.8046875,40.9355469c-0.4794922,0.2529297-0.6699219,0.8417969-0.4296875,1.328125   c0.5595703,1.1308594,0.8427734,2.3349609,0.8427734,3.5771484c0.0148849,4.4540939-3.7045288,7.9966965-7.9536743,7.5326538   c-2.6087036-0.2870483-4.8618774-2.0510864-5.8812866-4.605896c-0.2050781-0.5136719-0.7900391-0.7626953-1.2988281-0.5585938   c-0.5136719,0.2041016-0.7636719,0.7861328-0.5585938,1.2988281c1.137207,2.852417,3.5018921,4.9277344,6.3296509,5.6382446   C44.7481346,60.8486595,36.2843246,61.7067947,33,56.5546875V41.8261719h9.0869141c0.5527344,0,1-0.4472656,1-1s-0.4472656-1-1-1   H33v-4.3046875h4.0439453c0.5527344,0,1-0.4472656,1-1v-3.7822266c-0.021759-1.3134079-1.9780045-1.3151875-2,0.0000439   c0-0.0000439,0,2.7821827,0,2.7821827H33V10.25C33,6.8037109,36.2275391,4,40.1953125,4   c4.3297501-0.0015144,7.8265572,3.3636127,7.0929565,7.244751c-3.8829956,0.1810913-7.2811279,2.5674438-8.3595581,5.9368896   c-0.1689453,0.5263672,0.1210938,1.0893555,0.6474609,1.2573242c0.512188,0.1691818,1.0900917-0.1168308,1.2568359-0.6474648   c0.8664093-2.7379999,3.8581734-4.6518269,7.1132813-4.5595665c5.0959206,0.0344744,8.7699203,4.9837093,6.15131,9.2129707   c-0.3572502,0.5442505-0.0388451,1.3435535,0.5957794,1.4920979C58.4677429,24.7684517,60.8447762,30.5969677,59.7490845,35   h-4.8486938c-0.3085938,0-0.609375-0.1230469-0.8232422-0.3369141l-1.7402344-1.7402344   c-1.3009109-1.3804436-3.5534439-0.812561-5.3369217-0.9229012C45.6879654,32.0217896,45.6834183,33.9778061,47.0000458,34   C47,34,50.0996094,34,50.0996094,34c0.3085938,0,0.609375,0.1230469,0.8232422,0.3369141l1.7402344,1.7402344   C53.2490234,36.6640625,54.0644531,37,54.9003906,37h4.2283936C58.3938599,38.7516479,57.2418823,40.1777954,55.8046875,40.9355469   z"/>
    </g>
  </g>
  <g id="SvgjsG1008" featurekey="kZnDdN-0" transform="matrix(1.6888630424504847,0,0,1.6888630424504847,91.48002229541937,24.272148488935134)" fill="#fcd34d">
    <path d="M12.76 18.5 c-1.28 1.1 -2.9 1.7 -4.7 1.7 c-3.64 0 -7.16 -2.96 -7.16 -7.2 s3.52 -7.2 7.16 -7.2 c1.78 0 3.38 0.6 4.64 1.66 l-1.02 1.16 c-0.98 -0.78 -2.24 -1.24 -3.5 -1.24 c-2.86 0 -5.56 2.32 -5.56 5.62 s2.7 5.62 5.56 5.62 c1.28 0 2.56 -0.48 3.54 -1.28 z M24.94 20 l-1.8 0 l-3.54 -5.04 l-0.38 0 l-2.9 0 l0 5.04 l-1.66 0 l0 -14 l4.56 0 c3.14 0 4.96 1.92 4.96 4.52 c0 2 -1.08 3.56 -3 4.16 z M16.32 7.5600000000000005 l0 5.92 l2.86 0 c2.02 0 3.34 -1.04 3.34 -2.96 c0 -1.94 -1.32 -2.96 -3.34 -2.96 l-2.86 0 z M28.4 18.44 l6.66 0 l0 1.56 l-7.06 0 l-1.26 0 l0 -14 l1.66 0 l6.48 0 l0 1.56 l-6.48 0 l0 4.64 l5.04 0 l0 1.52 l-5.04 0 l0 4.72 z M48.08 20 l-1.44 -3.3 l-7.48 0 l-1.44 3.3 l-1.76 0 l6.24 -14 l1.38 0 l6.26 14 l-1.76 0 z M39.78 15.3 l6.24 0 l-3.12 -7.12 z M60.480000000000004 6 l0 1.56 l-3.88 0 l0 12.44 l-1.66 0 l0 -12.44 l-3.9 0 l0 -1.56 l9.44 0 z M69.34 5.800000000000001 c3.64 0 7.16 2.96 7.16 7.2 s-3.52 7.2 -7.16 7.2 c-3.66 0 -7.16 -2.96 -7.16 -7.2 s3.5 -7.2 7.16 -7.2 z M69.34 18.62 c2.74 0 5.44 -2.32 5.44 -5.62 s-2.7 -5.62 -5.44 -5.62 c-2.76 0 -5.44 2.32 -5.44 5.62 s2.68 5.62 5.44 5.62 z M88.88000000000001 20 l-1.8 0 l-3.54 -5.04 l-0.38 0 l-2.9 0 l0 5.04 l-1.66 0 l0 -14 l4.56 0 c3.14 0 4.96 1.92 4.96 4.52 c0 2 -1.08 3.56 -3 4.16 z M80.26 7.5600000000000005 l0 5.92 l2.86 0 c2.02 0 3.34 -1.04 3.34 -2.96 c0 -1.94 -1.32 -2.96 -3.34 -2.96 l-2.86 0 z M94.58 5.76 c2.18 0 3.78 1.44 4.38 2.94 l-1.26 0.68 c-0.64 -1.28 -1.66 -2.12 -3.12 -2.12 c-1.54 0 -2.6 0.88 -2.6 2.1 c0 1.14 0.72 1.86 2.24 2.44 l1.02 0.38 c2.52 0.94 4.1 2.02 4.1 4.24 c0 2.4 -2.3 3.88 -4.68 3.88 s-4.34 -1.44 -4.88 -3.44 l1.34 -0.64 c0.48 1.48 1.74 2.56 3.54 2.56 c1.6 0 2.96 -0.92 2.96 -2.34 c0 -1.6 -1.12 -2.2 -2.78 -2.84 l-1.04 -0.4 c-2.12 -0.8 -3.48 -1.9 -3.48 -3.88 c0 -2.04 1.8 -3.56 4.26 -3.56 z M125.55999999999999 6 l-4.52 14 l-1.08 0 l-3.86 -10.94 l-3.84 10.94 l-1.08 0 l-4.54 -14 l1.72 0 l3.42 10.58 l3.74 -10.58 l1.16 0 l3.76 10.58 l3.42 -10.58 l1.7 0 z M134.22 5.800000000000001 c3.64 0 7.16 2.96 7.16 7.2 s-3.52 7.2 -7.16 7.2 c-3.66 0 -7.16 -2.96 -7.16 -7.2 s3.5 -7.2 7.16 -7.2 z M134.22 18.62 c2.74 0 5.44 -2.32 5.44 -5.62 s-2.7 -5.62 -5.44 -5.62 c-2.76 0 -5.44 2.32 -5.44 5.62 s2.68 5.62 5.44 5.62 z M153.76 20 l-1.8 0 l-3.54 -5.04 l-0.38 0 l-2.9 0 l0 5.04 l-1.66 0 l0 -14 l4.56 0 c3.14 0 4.96 1.92 4.96 4.52 c0 2 -1.08 3.56 -3 4.16 z M145.14000000000001 7.5600000000000005 l0 5.92 l2.86 0 c2.02 0 3.34 -1.04 3.34 -2.96 c0 -1.94 -1.32 -2.96 -3.34 -2.96 l-2.86 0 z M157.22000000000003 18.44 l6.28 0 l0 1.56 l-7.94 0 l0 -14 l1.66 0 l0 12.44 z M169.66000000000003 6 c4.08 0 7.08 3.1 7.08 7 s-3 7 -7.08 7 l-4.16 0 l0 -14 l4.16 0 z M169.64000000000001 18.42 c3.34 0 5.4 -2.42 5.4 -5.42 s-2.06 -5.42 -5.4 -5.42 l-2.48 0 l0 10.84 l2.48 0 z"/>
  </g>
</svg>
